<svg xmlns="http://www.w3.org/2000/svg" id="Layer_1" data-name="Layer 1" viewBox="0 0 396.2 394.44"><defs><style>.cls-1{fill:#e74038;}.cls-1,.cls-2{fill-rule:evenodd;}.cls-2{fill:#eb6063;}</style></defs><title>COVID19_icon</title><path class="cls-1" d="M255.63 387.42c72.66.0 131.93-59.29 131.93-132s-59.27-131.9-131.93-131.9-131.95 59.29-131.95 131.94S183 387.42 255.63 387.42z" transform="translate(-58.25 -58.55)"/><path class="cls-1" d="M251.68 130.41l-2.84-.25-2.82.25V130c-4.9-.36-9-.65-10.58-.65 4.74-8.63 11.37-7.79 7-53.67-13.2-1.72-9.71-15.29-5-16.94 8.7-.39 13.08.2 21.66.0 3.57.47 8.44 14.91-3.88 16.94-4.35 45.88 2.28 45 7 53.67-1.55.0-5.67.29-10.57.65z" transform="translate(-58.25 -58.55)"/><path class="cls-1" d="M251.68 130.41l-2.84-.25-2.82.25V130c-4.9-.36-9-.65-10.58-.65 4.74-8.63 11.37-7.79 7-53.67-13.2-1.72-9.71-15.29-5-16.94 8.7-.39 13.08.2 21.66.0 3.57.47 8.44 14.91-3.88 16.94-4.35 45.88 2.28 45 7 53.67-1.55.0-5.67.29-10.57.65z" transform="translate(-58.25 -58.55)"/><path class="cls-1" d="M293.79 136.05l-2.6-1.15-2.74-.75.14-.41c-4.49-2-8.29-3.62-9.75-4.14 7.34-6.54 13.31-3.56 24.49-48.27-11.88-6-4.07-17.64.91-17.65 8.34 2.53 12.26 4.55 20.43 7.22 3.2 1.63 3 16.87-9.3 14.67-19.37 41.83-12.85 43.26-11.25 53-1.46-.52-5.45-1.65-10.19-2.92z" transform="translate(-58.25 -58.55)"/><path class="cls-1" d="M331.61 155.39l-2.07-1.95-2.34-1.61.28-.35c-3.58-3.36-6.61-6.17-7.82-7.14 9.1-3.73 13.74 1.08 39.16-37.37-9.19-9.62 2-18 6.73-16.33 7 5.15 10.06 8.37 16.87 13.6 2.48 2.61-2.79 16.9-13.66 10.73-32.19 33-26.51 36.51-28.24 46.2-1.2-1-4.59-3.35-8.63-6.14z" transform="translate(-58.25 -58.55)"/><path class="cls-1" d="M360.84 186.22l-1.3-2.53-1.68-2.29.38-.23c-2.25-4.37-4.18-8-5-9.34 9.83-.48 12.61 5.58 49.38-22.2-5.46-12.14 7.9-16.28 11.78-13.16 4.9 7.19 6.69 11.24 11.38 18.44 1.47 3.27-8.27 15-16.47 5.58-41.32 20.39-37.14 25.59-42 34.14-.81-1.3-3.21-4.66-6.1-8.64z" transform="translate(-58.25 -58.55)"/><path class="cls-1" d="M378.13 225l-.38-2.83-.81-2.72.43-.09c-.67-4.86-1.28-9-1.61-10.47 9.43 2.82 10 9.47 53.95-4.49-1.11-13.27 12.88-12.72 15.5-8.49 2.22 8.41 2.57 12.83 4.58 21.18.3 3.58-12.78 11.4-17.38-.23-45.76 5.47-43.55 11.78-51 18.23-.33-1.5-1.47-5.49-2.87-10.19z" transform="translate(-58.25 -58.55)"/><path class="cls-1" d="M381.53 267.38l.57-2.79.13-2.85.45.06c1-4.8 1.77-8.85 2-10.4 7.95 5.79 6.29 12.27 52.35 13.72 3.37-12.87 16.38-7.71 17.45-2.85-.71 8.69-1.86 13-2.73 21.5-.91 3.47-15.86 6.49-16.32-6-45-10.08-45-3.4-54.13.22.19-1.54.44-5.66.69-10.56z" transform="translate(-58.25 -58.55)"/><path class="cls-1" d="M370.62 308.44 372.1 306l1.06-2.62.4.19c2.53-4.19 4.63-7.78 5.33-9.16 5.58 8.12 1.85 13.67 44.81 30.37 7.46-11 18-1.82 17.39 3.13-3.55 7.94-6 11.58-9.72 19.36-2 3-17.12.85-13.4-11.08-39.05-24.47-41.28-18.18-51.11-17.82.69-1.38 2.3-5.2 4.16-9.73z" transform="translate(-58.25 -58.55)"/><path class="cls-1" d="M346.68 343.52l2.19-1.78 1.89-2.14.31.32c3.78-3.13 6.95-5.8 8.07-6.85 2.56 9.49-2.8 13.49 32.13 43.54 10.72-7.9 17.6 4.27 15.37 8.73-6 6.32-9.57 8.92-15.62 15-2.88 2.13-16.42-4.9-8.93-14.91-28.68-36.08-32.88-30.9-42.28-33.81 1.13-1.08 3.91-4.15 7.17-7.81z" transform="translate(-58.25 -58.55)"/><path class="cls-1" d="M312.41 368.63l2.68-.95 2.48-1.38.18.41c4.61-1.7 8.48-3.14 9.89-3.78-.74 9.8-7.13 11.78 15.82 51.77 12.72-3.9 15.16 9.88 11.58 13.34-7.77 3.95-12 5.22-19.74 9-3.43 1-13.84-10.08-3.46-17-15-43.57-20.72-40.07-28.6-46 1.41-.64 5.05-2.59 9.35-5z" transform="translate(-58.25 -58.55)"/><path class="cls-1" d="M271.74 380.91h2.84l2.8-.45v.44c4.91-.06 9.05-.14 10.58-.28-4 9-10.64 8.75-2.31 54.09 13.29.56 11 14.37 6.47 16.44-8.63 1.15-13.05.94-21.59 1.87-3.59-.15-9.7-14.1 2.4-17.2.33-46.1-6.19-44.69-11.66-52.86 1.54-.14 5.63-.77 10.47-1.58z" transform="translate(-58.25 -58.55)"/><path class="cls-1" d="M229.3 378.94l2.69.94 2.8.49-.11.42c4.64 1.6 8.58 2.88 10.07 3.28-6.74 7.17-12.95 4.7-20.19 50.22 12.34 5 5.58 17.22.62 17.66-8.52-1.79-12.6-3.46-21-5.41-3.32-1.34-4.45-16.55 8-15.44 15.66-43.33 9-44.2 6.6-53.72 1.49.38 5.55 1.14 10.39 2z" transform="translate(-58.25 -58.55)"/><path class="cls-1" d="M189.94 363l2.23 1.77 2.48 1.4-.26.36c3.86 3 7.12 5.57 8.41 6.43-8.74 4.52-13.78.12-35.76 40.63 10 8.8-.46 18.11-5.29 16.87-7.44-4.53-10.73-7.47-18-12.09-2.69-2.38 1.31-17.09 12.68-11.9 29.19-35.65 23.22-38.67 24.1-48.46 1.29.88 4.87 2.94 9.14 5.35z" transform="translate(-58.25 -58.55)"/><path class="cls-1" d="M158.14 334.8l1.51 2.42 1.87 2.14-.35.25c2.61 4.16 4.86 7.63 5.78 8.87-9.74 1.35-13-4.47-47.24 26.41 6.49 11.62-6.47 16.91-10.61 14.15-5.5-6.76-7.63-10.61-12.93-17.39-1.75-3.14 6.92-15.68 15.92-7 39.39-23.9 34.77-28.72 38.91-37.65.92 1.24 3.6 4.39 6.82 8.09z" transform="translate(-58.25 -58.55)"/><path class="cls-1" d="M137.54 297.66l.61 2.76 1.06 2.65-.43.12c1.09 4.8 2.06 8.81 2.51 10.3-9.63-2-10.8-8.55-53.34 9.17 2.26 13.12-11.73 13.8-14.71 9.81-2.95-8.2-3.67-12.55-6.41-20.69-.6-3.55 11.75-12.48 17.34-1.31 45.11-9.43 42.35-15.53 49.19-22.59.46 1.49 1.94 5.34 3.75 9.91z" transform="translate(-58.25 -58.55)"/><path class="cls-1" d="M130.47 255.76l-.34 2.83.12 2.83h-.45c-.56 4.88-1 9-1.05 10.54-8.44-5.08-7.35-11.66-53.37-9.12C73.14 276 59.73 272 58.26 267.18c-.06-8.7.71-13.05.84-21.65.62-3.53 15.24-7.85 16.77 4.55 45.69 6.13 45.11-.53 53.92-4.92-.07 1.54.05 5.67.23 10.58z" transform="translate(-58.25 -58.55)"/><path class="cls-1" d="M142.4 202.64l-1.5 2.41-1.09 2.62-.41-.21c-2.57 4.19-4.7 7.73-5.41 9.11-5.5-8.15-1.72-13.67-44.51-30.81-7.57 11-18 1.66-17.37-3.29 3.64-7.91 6.17-11.53 9.93-19.27 2-2.94 17.11-.68 13.28 11.22 38.81 24.86 41.1 18.58 50.94 18.32-.72 1.38-2.35 5.17-4.27 9.69z" transform="translate(-58.25 -58.55)"/><path class="cls-1" d="M171.36 163.28l-2.3 1.67-2 2-.28-.34c-4 2.89-7.3 5.34-8.47 6.34-2-9.64 3.61-13.29-29.42-45.44-11.17 7.23-17.3-5.35-14.8-9.66 6.37-5.94 10.1-8.31 16.52-14 3-1.94 16.08 5.91 8 15.44 26.4 37.78 30.91 32.84 40.1 36.36-1.17 1-4.14 3.88-7.62 7.32z" transform="translate(-58.25 -58.55)"/><path class="cls-1" d="M209.89 139.17l-2.74.73-2.6 1.17-.15-.43c-4.74 1.29-8.71 2.41-10.18 2.93 1.58-9.71 8.11-11.14-11.34-52.93-13 2.8-14.26-11.15-10.39-14.29 8.06-3.29 12.38-4.18 20.42-7.26 3.51-.74 12.93 11.24 2 17.29 11.26 44.68 17.23 41.68 24.58 48.21-1.46.52-5.25 2.17-9.74 4.16z" transform="translate(-58.25 -58.55)"/><path class="cls-2" d="M202.79 204.59l14.14 24.28c1.82 3.31 1.85 6.11-1.86 7.78l-43.93-6.34c-2.71-.3-3.11-3.12-.29-6.08l20.67-19.83C198.15 197.15 201.1 200.46 202.79 204.59z" transform="translate(-58.25 -58.55)"/><path class="cls-2" d="M283.64 223.06l1.28 24.7c.11 3.31-1 5.52-4.57 5.34L248.5 230.48c-2-1.34-1.18-3.7 2.23-4.9l24.16-7.22C283 215.36 284 219.13 283.64 223.06z" transform="translate(-58.25 -58.55)"/><path class="cls-2" d="M214.65 313.71l1.29 24.58c.1 3.31-1 5.51-4.57 5.32l-31.69-22.52c-2-1.31-1.18-3.67 2.21-4.87l24.05-7.17C214 306.05 215 309.8 214.65 313.71z" transform="translate(-58.25 -58.55)"/><path class="cls-2" d="M354.76 229.57l4.05 26.07c.47 3.52-.45 6-4.26 6.16L318.3 241.24c-2.25-1.18-1.65-3.79 1.83-5.41L345 225.55C353.25 221.47 354.7 225.36 354.76 229.57z" transform="translate(-58.25 -58.55)"/><path class="cls-2" d="M245.55 351.68 233.17 328.3c-1.58-3.17-1.51-5.81 2-7.24l41.1 7.63c2.52.4 2.8 3.05.0 5.74l-20.2 17.87C249.64 358.87 247 355.64 245.55 351.68z" transform="translate(-58.25 -58.55)"/><path class="cls-2" d="M302.16 314.49l25.7 6.23c3.43.91 5.37 2.73 4.08 6.33L299 352.74c-2 1.66-4.15.11-4.32-3.74V322C294.07 312.81 298.24 313 302.16 314.49z" transform="translate(-58.25 -58.55)"/><path class="cls-2" d="M163.68 274.08l14.67-22.35c2-2.94 4.41-4.16 7.41-1.71L199 290.09c.88 2.43-1.33 4-5.05 2.82l-25.64-9.17C159.3 281.18 160.88 277.27 163.68 274.08z" transform="translate(-58.25 -58.55)"/><path class="cls-2" d="M234.4 288.7l-1.5-24.81c-.13-3.33.94-5.55 4.54-5.4L269.62 281c2 1.3 1.22 3.7-2.2 4.91l-24.2 7.46C235.11 296.42 234.1 292.64 234.4 288.7z" transform="translate(-58.25 -58.55)"/><path class="cls-2" d="M311.7 295.2l-14.54-20.27c-1.9-2.76-2.16-5.23 1-7l39.38 1.89c2.4.0 3 2.49.77 5.36l-16.59 19.26C316.45 301.37 313.56 298.72 311.7 295.2z" transform="translate(-58.25 -58.55)"/><path class="cls-2" d="M284.9 160.75l9.48 20.69c1.2 2.81 1 5.08-2.11 6.13L257.33 179c-2.16-.46-2.26-2.76.24-4.92l18.25-14.37C281.72 154.36 283.84 157.27 284.9 160.75z" transform="translate(-58.25 -58.55)"/><path class="cls-2" d="M224.38 189.48l-19.62-11.54c-2.59-1.62-3.74-3.58-1.78-6.23l33.57-13c2-.85 3.44 1 2.61 4.19l-6.73 22.21C230.62 192.91 227.23 191.74 224.38 189.48z" transform="translate(-58.25 -58.55)"/><path class="cls-2" d="M308.86 203.08l2.82-23.41c.45-3.13 1.85-5 5.18-4.26l26.21 26.47c1.65 1.56.5 3.67-2.9 4.22l-23.86 2.82C308.2 210.42 307.91 206.72 308.86 203.08z" transform="translate(-58.25 -58.55)"/></svg>